<?xml version="1.0" encoding="UTF-8" standalone="no"?>
<!-- Created with Inkscape (http://www.inkscape.org/) -->

<svg
   xmlns:dc="http://purl.org/dc/elements/1.1/"
   xmlns:cc="http://creativecommons.org/ns#"
   xmlns:rdf="http://www.w3.org/1999/02/22-rdf-syntax-ns#"
   xmlns:svg="http://www.w3.org/2000/svg"
   xmlns="http://www.w3.org/2000/svg"
   xmlns:sodipodi="http://sodipodi.sourceforge.net/DTD/sodipodi-0.dtd"
   xmlns:inkscape="http://www.inkscape.org/namespaces/inkscape"
   version="1.1"
   id="svg2"
   xml:space="preserve"
   width="561.37811"
   height="390.30826"
   viewBox="0 0 561.37811 390.30825"
   sodipodi:docname="RJ-2019-024.svg"
   inkscape:version="0.92.4 (unknown)"><metadata
     id="metadata8"><rdf:RDF><cc:Work
         rdf:about=""><dc:format>image/svg+xml</dc:format><dc:type
           rdf:resource="http://purl.org/dc/dcmitype/StillImage" /><dc:title></dc:title></cc:Work></rdf:RDF></metadata><defs
     id="defs6" /><sodipodi:namedview
     pagecolor="#ffffff"
     bordercolor="#666666"
     borderopacity="1"
     objecttolerance="10"
     gridtolerance="10"
     guidetolerance="10"
     inkscape:pageopacity="0"
     inkscape:pageshadow="2"
     inkscape:window-width="1853"
     inkscape:window-height="1025"
     id="namedview4"
     showgrid="false"
     fit-margin-left="15"
     fit-margin-top="15"
     fit-margin-right="15"
     fit-margin-bottom="15"
     inkscape:zoom="0.84096496"
     inkscape:cx="143.65478"
     inkscape:cy="40.326125"
     inkscape:window-x="1987"
     inkscape:window-y="27"
     inkscape:window-maximized="1"
     inkscape:current-layer="g10" /><g
     id="g10"
     inkscape:groupmode="layer"
     inkscape:label="RJ-2019-024"
     transform="matrix(1.3333333,0,0,-1.3333333,-116.77906,1050.5066)"><text
       transform="matrix(1,0,0,-1,99.213,761.753)"
       style="font-variant:normal;font-weight:bold;font-size:20.66250038px;font-family:'URW Palladio L';-inkscape-font-specification:URWPalladioL-Bold;writing-mode:lr-tb;fill:#000000;fill-opacity:1;fill-rule:nonzero;stroke:none"
       id="text34"><tspan
         x="0 9.1741505 21.798937 32.130188 44.754974 56.243324 73.455185 85.026184 105.11014 117.73492 128.06618 137.24033 149.86511 160.19637 171.68471 187.18159 195.2193 206.70766 219.91098 237.12285 247.4541 258.94244 277.3114 287.64267 294.52328 302.56097 309.44159"
         y="0"
         sodipodi:role="line"
         id="tspan28">shadow:RPackageforGeometric</tspan><tspan
         x="0 12.624787 25.249575 35.580826 48.205612 59.693962 82.071449 96.989777 107.32102 114.20164 123.37579 136.00058 142.8812 153.21243 160.09305 166.97366 178.46201 191.08681 205.42657 212.30719 230.0976 240.42885 258.21927 274.29468 282.3324 294.95718 305.28845"
         y="26.152"
         sodipodi:role="line"
         id="tspan30">ShadowCalculationsinanUrban</tspan><tspan
         x="0 12.624787 25.249575 36.737926 43.618538 51.65625 63.1446 75.769386 94.138351 104.4696 117.09439"
         y="52.304001"
         sodipodi:role="line"
         id="tspan32">Environment</tspan></text>
<text
       transform="matrix(1,0,0,-1,99.213,692.911)"
       style="font-variant:normal;font-size:9.96259975px;font-family:'URW Palladio L';-inkscape-font-specification:URWPalladioL-Ital;writing-mode:lr-tb;fill:#000000;fill-opacity:1;fill-rule:nonzero;stroke:none"
       id="text38"><tspan
         x="0 4.6126838 12.084634 21.489328 24.25893 28.313709 33.29501 37.718403 41.593857 46.854107 54.605011 59.028404 62.903858 70.654762 75.078156 80.617363 85.598656 91.685806 96.667107 101.64841 106.0718 109.38935 113.81274 120.17884 126.26599 129.96211 133.83757 136.60718 139.37677 144.35808 151.55107 156.53236 161.79262 168.24838 173.7876 176.55719 180.98059 185.40399 190.94319 195.92448 199.24203 202.55959 206.98297 212.24323 218.88829 221.65788 226.08128 230.50467"
         y="0"
         sodipodi:role="line"
         id="tspan36">byMichaelDorman,EvyatarErell,AdiVulkan,ItaiKloog</tspan></text>
<text
       transform="matrix(1,0,0,-1,98.863,666.41)"
       style="font-variant:normal;font-weight:bold;font-size:8.96640015px;font-family:'URW Palladio L';-inkscape-font-specification:URWPalladioL-Bold;writing-mode:lr-tb;fill:#000000;fill-opacity:1;fill-rule:nonzero;stroke:none"
       id="text42"><tspan
         x="0 6.9758592 12.454329 16.435411 19.421223 22.909151 27.392351 31.373434"
         y="0"
         sodipodi:role="line"
         id="tspan40">Abstract</tspan></text>
<text
       transform="matrix(0.98,0,0,-1,135.113,666.41)"
       style="font-variant:normal;font-size:8.96640015px;font-family:'URW Palladio L';-inkscape-font-specification:URWPalladioL-Roma;writing-mode:lr-tb;fill:#000000;fill-opacity:1;fill-rule:nonzero;stroke:none"
       id="text46"><tspan
         x="0 5.4964032 10.714848 13.32407 19.0536 24.442406 28.925606 34.314411 38.609318 44.078823 46.688046 51.90649 54.829536 58.209869 63.105522 68.583992 73.99073 77.971817 82.266724 87.996246 90.919296 96.137741"
         y="0"
         sodipodi:role="line"
         id="tspan44">Thispaperintroducesthe</tspan></text>
<text
       transform="matrix(1,0,0,-1,235.428,666.41)"
       style="font-variant:normal;font-weight:bold;font-size:8.96640015px;font-family:'URW Palladio L';-inkscape-font-specification:URWPalladioL-Bold;writing-mode:lr-tb;fill:#000000;fill-opacity:1;fill-rule:nonzero;stroke:none"
       id="text50"><tspan
         x="0 3.9810815 9.4595518 13.942752 19.421223 24.40654"
         y="0"
         sodipodi:role="line"
         id="tspan48">shadow</tspan></text>
<text
       transform="matrix(0.98,0,0,-1,269.194,666.41)"
       style="font-variant:normal;font-size:8.96640015px;font-family:'URW Palladio L';-inkscape-font-specification:URWPalladioL-Roma;writing-mode:lr-tb;fill:#000000;fill-opacity:1;fill-rule:nonzero;stroke:none"
       id="text54"><tspan
         x="0 5.3888063 9.8720064 13.853088 18.838406 23.321606 28.306925 34.529606 37.515419 42.411072 47.880577 53.870132 58.048473 63.544876 68.763321 74.986 80.374809 84.858009 88.839088 93.824409 98.30761 103.29293 109.51561 114.90442 118.27578 123.17144 128.23746 130.84668 136.32515 140.62006 146.35855 149.34436 154.7511 159.96954 163.95062 166.87367 169.48289 174.37854 179.59698 185.32652 188.31233 193.20799 198.67749 202.47925 207.69769 212.18089 217.65936 222.55501 230.03299"
         y="0"
         sodipodi:role="line"
         id="tspan52">packageforR.Thepackageprovidesfunctionsforshadow-</tspan></text>
<text
       transform="matrix(1,0,0,-0.98039216,99.213,655.451)"
       style="font-variant:normal;font-size:9.14572811px;font-family:'URW Palladio L';-inkscape-font-specification:URWPalladioL-Roma;writing-mode:lr-tb;fill:#000000;fill-opacity:1;fill-rule:nonzero;stroke:none"
       id="text58"><tspan
         x="0 3.4479394 7.828743 10.49015 15.063014 18.044521 22.425325 30.784521 34.845222 39.418087 42.079494 46.140198 51.655071 54.316479 58.889343 61.87085 64.532257 69.525826 74.84864 81.497581 84.158989 92.25296 95.234467 100.55728 107.70924 113.21497 116.82753 121.88512 126.45798 134.55196 138.93275 144.25557 149.4229 152.0843 155.5414 160.53496 165.85777 173.93346 178.31425 183.63707 186.61858 191.80421 197.12701 201.69989 209.77556 214.15637 216.81778 224.67395 228.55174 233.87456 238.44742 244.03546 249.02902 259.41858 264.74139 269.12219 271.7836 276.86862 282.19144 285.17294 290.36771 294.24551 299.56833 304.14117 309.72922 314.72278 325.12149 328.16702 333.16058 338.15414 341.1265 346.62308 350.23566 352.89706 358.21988 363.97253 368.54541 373.86823 382.22742 387.02893 392.11395"
         y="0"
         sodipodi:role="line"
         id="tspan56">relatedcalculationsintheurbanenvironment,namelyshadowheight,shadowfootprintandSky</tspan></text>
<text
       transform="matrix(0.993,0,0,-1,98.89,644.492)"
       style="font-variant:normal;font-size:8.96640015px;font-family:'URW Palladio L';-inkscape-font-specification:URWPalladioL-Roma;writing-mode:lr-tb;fill:#000000;fill-opacity:1;fill-rule:nonzero;stroke:none"
       id="text62"><tspan
         x="0 5.9805889 8.5898113 12.884717 22.622227 27.607546 32.090744 36.071827 38.994873 43.89053 49.700756 52.686565 57.393925 63.867668 68.852989 74.098328 78.079414 82.562614 85.171837 89.152916 94.559654 97.168877 101.65208 104.57513 107.18435 112.08 117.29845 121.1002 125.6103 130.09349 136.16376 143.64172 147.93663 150.54585 155.41461 159.89781 165.96806 172.7108 180.18878 183.7305 188.2137 193.60251 198.99132 203.28622 209.09645 212.08226 217.489 222.70744 226.68852 229.61157 232.22079 237.11646 244.59442 247.51747 254.68163 258.97653 262.77829 265.70132 268.31055 276.22787 280.71109 283.63412 290.18857 293.99033 298.88599 301.49521 305.97839 311.78864 315.33035 319.81357 325.29202 327.90125 332.38446 335.3075 337.91672 342.81238 350.29034 357.76834 362.98679 365.59601 368.20523 374.76862 377.69168 382.17487 387.16019 389.76941 394.98785"
         y="0"
         sodipodi:role="line"
         id="tspan60">ViewFactor(SVF)calculations,aswellasawrapperfunctiontoestimatesolarradiationwhiletaking</tspan></text>
<text
       transform="matrix(1,0,0,-0.98039216,99.213,633.534)"
       style="font-variant:normal;font-size:9.14572811px;font-family:'URW Palladio L';-inkscape-font-specification:URWPalladioL-Roma;writing-mode:lr-tb;fill:#000000;fill-opacity:1;fill-rule:nonzero;stroke:none"
       id="text66"><tspan
         x="0 3.8777888 9.2006025 13.773466 19.361506 24.355074 34.762913 39.143715 42.02462 45.070148 49.450951 53.511654 56.49316 63.142105 65.803513 71.126328 74.107834 81.881706 86.454567 90.515266 94.575974 99.569542 105.08441 110.40723 113.38873 120.06512 127.1805 129.8419 135.28362 138.32913 143.84401 149.16682 153.22752 156.20903 158.87044 163.86401 169.18683 175.84491 180.83849 186.33507 190.71587 194.32843 198.90129 201.8828 209.03476 214.02832 222.13144 229.4846 232.14601 236.71887 241.80391 246.18471 252.57758 257.57114 263.38782 268.8844 273.87796 276.53937 281.62439 286.70944 291.703 297.02582 303.6839 311.31143 313.97284 316.95435 325.05746 332.41064 337.73343 342.11426 344.77567 349.86069 355.1835 360.94531 365.50903 368.49054 371.47205 375.08459 377.746 382.80359 388.31845 391.29996 395.68079"
         y="0"
         sodipodi:role="line"
         id="tspan64">shadoweffectsintoaccount.Allfunctionsoperateonalayerofpolygonswithaheightattribute,</tspan></text>
<text
       transform="matrix(1,0,0,-0.98039216,99.213,622.575)"
       style="font-variant:normal;font-size:9.14572811px;font-family:'URW Palladio L';-inkscape-font-specification:URWPalladioL-Roma;writing-mode:lr-tb;fill:#000000;fill-opacity:1;fill-rule:nonzero;stroke:none"
       id="text70"><tspan
         x="0 4.5728641 7.234271 11.11206 19.041407 24.126431 29.449244 34.44281 42.070351 50.338085 54.91095 61.724518 66.297379 70.678185 75.397385 78.378891 81.927429 87.442307 93.030342 97.411148 105.93497 111.43155 116.42512 119.08652 124.17155 129.25658 134.25014 139.57295 143.45074 150.96854 155.9621 162.51044 167.0833 169.36974 173.9426 183.96632 189.13365 193.51447 197.57516 200.55667 205.55023 212.09857 217.68661 222.25948 225.24098 229.81386 236.97496 241.77646 247.29134 251.35204 259.61978 265.20782 269.78067 272.76221 280.27084 284.84369 288.30078 295.61737 300.19022 304.06802 307.9458 312.93936 317.00009 319.6615 324.23434 327.21585 331.59665 340.12964 347.75717 350.41858 353.40009 361.65866 366.23154 370.29224 374.35294 379.8678 383.48038 388.05325 392.11395"
         y="0"
         sodipodi:role="line"
         id="tspan68">alsoknownas“extrudedpolygons”or2.5Dvectordata.Suchdataareassociatedwithaccuracy</tspan></text>
<text
       transform="matrix(1,0,0,-0.98039216,99.213,611.616)"
       style="font-variant:normal;font-size:9.14572811px;font-family:'URW Palladio L';-inkscape-font-specification:URWPalladioL-Roma;writing-mode:lr-tb;fill:#000000;fill-opacity:1;fill-rule:nonzero;stroke:none"
       id="text74"><tspan
         x="0 2.6614068 5.3228135 13.398492 16.059898 19.041407 23.614269 26.595778 29.257183 34.250751 39.573566 46.094471 48.755875 56.730949 60.17889 64.559692 70.056274 73.513359 77.894165 81.771957 86.152756 91.475571 94.457077 97.118484 102.4413 110.16944 115.68431 119.29688 124.35446 128.92732 136.9024 141.2832 146.60602 151.77336 154.43477 157.88271 162.87627 168.19908 176.27477 180.65556 185.97838 188.95988 192.83768 199.12079 206.73004 211.7236 219.35114 223.73195 228.89928 233.28009 236.23416 241.2643 246.77917 252.10199 254.7634 257.4248 262.50983 269.54291 274.11575 283.83768 291.91336 296.90692 302.49496 306.87576 309.53717 313.41495 318.45425 323.95084 328.9444 331.6058 336.69083 341.77585 346.76941 352.09222 356.6651 361.96964 364.63104 369.20389 374.28891 378.66971 382.28229 388.81235 393.80591"
         y="0"
         sodipodi:role="line"
         id="tspan72">limitationsinrepresentingurbanenvironments.However,unlike3Dmodels,polygonallayersof</tspan></text>
<text
       transform="matrix(1,0,0,-0.98039216,99.213,600.657)"
       style="font-variant:normal;font-size:9.14572811px;font-family:'URW Palladio L';-inkscape-font-specification:URWPalladioL-Roma;writing-mode:lr-tb;fill:#000000;fill-opacity:1;fill-rule:nonzero;stroke:none"
       id="text78"><tspan
         x="0 5.0575876 10.572461 13.233869 15.895275 21.483315 24.144722 29.467535 37.534069 42.527634 48.042511 51.024017 53.685425 56.346828 61.669643 66.050446 72.909744 77.482605 80.144012 85.137581 90.460396 98.526924 106.15446 108.81587 111.79738 120.11085 123.09235 128.41516 132.79597 135.45738 142.05145 147.37427 151.75507 154.41647 159.5015 164.82431 170.78732 175.36018 178.80812 186.17958 190.75244 195.80089 201.31577 206.63858 212.22662 216.79948 222.1223 225.10381 227.76521 235.84088 240.41376 245.58109 250.15395 252.81535 255.47676 260.04962 265.10721 267.76862 275.13092 279.7038 285.02661 293.59616 296.57767 301.90048 306.28128 308.94269 315.53677 321.03336 324.49042 329.48401 333.54471 337.92551 341.79416 345.67194 348.33334 353.65616 361.73184 367.31989 372.31345 376.69424 383.55353 388.87634 393.86993"
         y="0"
         sodipodi:role="line"
         id="tspan76">buildingoutlinesalongwiththeirheightareabundantlyavailableandtheirprocessingdoesnot</tspan></text>
<text
       transform="matrix(1,0,0,-0.98039216,99.213,589.698)"
       style="font-variant:normal;font-size:9.14572811px;font-family:'URW Palladio L';-inkscape-font-specification:URWPalladioL-Roma;writing-mode:lr-tb;fill:#000000;fill-opacity:1;fill-rule:nonzero;stroke:none"
       id="text82"><tspan
         x="0 3.4479394 7.828743 12.950351 18.465225 21.126631 24.583717 32.046631 35.924419 41.421001 45.801807 49.862511 52.523914 57.096779 59.758186 62.419594 66.992455 71.37326 80.043411 84.104118 86.765518 91.759087 95.636879 100.01768 105.60572 108.65125 112.52904 117.52261 123.03748 126.48542 130.54613 138.00903 142.58189 152.7428 156.62059 161.61417 164.65968 167.64119 175.26874 179.8416 183.28954 187.67033 195.26129 200.86763 206.19044 213.65335 219.14993 222.60703 226.98782 230.86562 235.24641 240.56923 246.63284 252.12943 256.7023 260.763 265.84802 270.4209 275.50592 282.96881 285.95032 291.27313 296.78802 303.74792 308.80551 312.41806 315.07947 320.40228 325.4873 332.4472 336.32501 341.82159 346.39444 349.37595 352.03735 357.03094 360.07645 363.05795 367.43878 375.51443 381.01102 386.00461 389.61716 394.19003"
         y="0"
         sodipodi:role="line"
         id="tspan80">requirespecializedclosed-source3Dsoftware.Thepresentpackagethusbringsspatio-temporal</tspan></text>
<text
       transform="matrix(0.992,0,0,-1,99.213,578.739)"
       style="font-variant:normal;font-size:8.96640015px;font-family:'URW Palladio L';-inkscape-font-specification:URWPalladioL-Roma;writing-mode:lr-tb;fill:#000000;fill-opacity:1;fill-rule:nonzero;stroke:none"
       id="text86"><tspan
         x="0 3.8017535 9.0201988 13.503398 18.981869 23.877523 30.521626 35.01379 39.721153 46.194893 53.430779 57.913979 63.132423 70.861458 74.663216 79.558868 82.168091 86.651291 92.434616 95.976349 100.45955 105.93802 108.54724 113.03044 115.95348 118.56271 123.45836 130.92737 134.90845 139.39165 142.00087 145.98196 151.3887 153.99792 158.48112 161.40416 164.01338 168.90904 176.37805 180.35913 184.84233 190.23114 194.71434 199.67276 202.28198 204.8912 207.50043 210.42348 213.0327 217.32761 223.37993 226.30296 233.44023 236.36327 241.58171 248.12718 253.02284 258.41165 262.70654 267.92499 270.9108 274.71255 279.60822 285.01495 288.39529 292.37637 298.92184 302.7236 308.1124 312.59561 315.51865 318.12787 322.61108 327.46188 331.9451 337.16354 341.64673 344.25595 349.24127 353.04303 355.65225 361.70459 369.18256 374.07822 377.61993 382.60526 388.05682 392.95248"
         y="0"
         sodipodi:role="line"
         id="tspan84">shadow,SVFandsolarradiationcalculationcapabilitiestotheopen-sourcespatialanalysisworkfow</tspan></text>
<text
       transform="matrix(1,0,0,-0.98039216,99.213,567.78)"
       style="font-variant:normal;font-size:9.14572811px;font-family:'URW Palladio L';-inkscape-font-specification:URWPalladioL-Roma;writing-mode:lr-tb;fill:#000000;fill-opacity:1;fill-rule:nonzero;stroke:none"
       id="text90"><tspan
         x="0 2.6614068 10.791959 16.901306 21.98633 27.510349 32.083214 36.143917 41.228943 45.801807 50.886829 58.075375 61.120899 66.635773 71.958588 76.019295 79.000801 81.662209 86.655769 91.978584 96.551453 99.21286 101.87427 104.85577 112.73939 115.40079 122.08633 127.67436 132.05516 140.13084 145.1244 150.44722 154.32501 157.30652 160.91908 165.49194 168.47345 172.85426 181.24089 186.75577 190.63356 193.29497 198.61778 206.51054 210.38832 218.464 223.03687 225.69827 231.16742 234.61536 238.99617 244.49275 247.94069 252.93425 258.52231 264.03717 268.09787 270.75928 275.81686 278.47827 285.66681 290.04761 294.76682 299.33969 307.41534 312.91193 315.57333 319.95416 326.63052 329.67606 334.66962 341.08994 345.47073 350.04358 354.10431 362.22571 365.27124 370.7861 376.10892 380.16962 383.15112 385.81253 390.80609 396.12891"
         y="0"
         sodipodi:role="line"
         id="tspan88">inR.Packagefunctionalityisdemonstratedusingsmallreproducibleexamplesforeachfunction.</tspan></text>
<text
       transform="matrix(0.98,0,0,-1,98.764,556.821)"
       style="font-variant:normal;font-size:8.96640015px;font-family:'URW Palladio L';-inkscape-font-specification:URWPalladioL-Roma;writing-mode:lr-tb;fill:#000000;fill-opacity:1;fill-rule:nonzero;stroke:none"
       id="text94"><tspan
         x="0 8.464282 11.073504 16.551975 20.84688 26.531578 31.920383 36.81604 39.739086 44.033989 49.252434 52.17548 54.784702 59.267902 64.020096 69.426834 73.228592 79.666466 83.647545 88.130745 91.932503 96.227402 102.18109 104.79031 110.00876 113.98985 116.59907 122.00581 127.48428 133.92215 139.32889 142.87062 147.82904 152.31224 159.67365 163.96855 169.187 174.25302 176.86224 180.24257 185.13823 190.35667 198.274 202.56891 207.78735 212.85336 217.33656 222.72537 228.11418 230.7234 233.33263 237.31371 241.79691 244.71996 247.32918 252.22484 257.44327 263.388 267.18976 272.5965 276.57758 283.939 288.42218 294.36691 298.6618 303.72784 308.21103 310.82025 316.22699 320.71021 323.63324 326.24246 331.13812 338.49954 343.39517 348.53293 356.45026 359.05948 363.04056 366.41193 371.30759 374.2934 378.27448 380.8837 383.49292 391.41025 395.89346 398.8165 401.42572"
         y="0"
         sodipodi:role="line"
         id="tspan92">Widerpotentialusecasesincludeurbanenvironmentapplicationssuchasevaluationofmicro-climatic</tspan></text>
<text
       transform="matrix(1,0,0,-0.98039216,99.213,545.862)"
       style="font-variant:normal;font-size:9.14572811px;font-family:'URW Palladio L';-inkscape-font-specification:URWPalladioL-Roma;writing-mode:lr-tb;fill:#000000;fill-opacity:1;fill-rule:nonzero;stroke:none"
       id="text98"><tspan
         x="0 2.6614068 7.9842205 13.544824 19.059696 23.4405 28.763315 32.824017 39.491253 42.536781 47.53035 53.429344 58.944218 62.556778 67.614365 72.187233 79.796478 85.29306 87.954468 92.527328 97.850143 103.17296 105.83437 111.15718 116.2422 120.82421 124.702 127.68351 133.19838 138.78642 143.87144 146.53285 151.85567 159.22713 164.742 168.35457 173.41216 177.98502 185.59425 189.65497 192.31638 194.97777 203.05345 207.62631 210.60782 213.26923 219.61636 223.67706 228.67064 236.74632 239.79184 244.78542 248.39798 253.66591 258.23877 263.56158 271.43607 275.81686 279.69464 282.67615 285.33755 293.41324 297.98611 300.96762 303.62903 308.95184 316.3233 321.81989 327.1427 332.13626 335.11777 340.11133 345.27866 350.27225 352.93365 355.91516 360.48801 363.14941 369.49655 373.87735 379.20016 383.58096 387.02893 392.11395"
         y="0"
         sodipodi:role="line"
         id="tspan96">infuenceforurbanplanning,studyingurbanclimaticcomfortandestimatingphotovoltaicenergy</tspan></text>
<text
       transform="matrix(1,0,0,-1,98.944,534.903)"
       style="font-variant:normal;font-size:8.96640015px;font-family:'URW Palladio L';-inkscape-font-specification:URWPalladioL-Roma;writing-mode:lr-tb;fill:#000000;fill-opacity:1;fill-rule:nonzero;stroke:none"
       id="text102"><tspan
         x="0 5.3888063 8.7691393 13.664794 19.143265 24.550003 28.531084 31.454132 34.063354 38.959007 46.419052 51.807858 56.703514 59.62656 63.921467 69.139908 72.062958 74.67218 79.15538 81.764603"
         y="0"
         sodipodi:role="line"
         id="tspan100">productionpotential.</tspan></text>
<text
       transform="scale(1,-1)"
       style="font-variant:normal;font-size:9.96259975px;font-family:'URW Palladio L';-inkscape-font-specification:URWPalladioL-Roma;writing-mode:lr-tb;fill:#000000;fill-opacity:1;fill-rule:nonzero;stroke:none"
       id="text498"
       x="98.903999"
       y="-508.34601"><tspan
         x="98.903999 105.01107 110.8093 118.07204 127.21771 130.53525 135.97484 141.98228 145.91751 151.71574 156.69704 162.08681 168.17397 173.61354 176.51265 182.09172 187.07301 192.05431 198.09164 203.07295 208.05426 213.03555 216.35309 222.36055 228.15878 235.42151 240.40282 245.38411 250.36542 428.3074 431.66479 436.89517 442.12552 452.89508 457.8764 462.8577 467.83899 472.82028 476.13785 481.11914 486.10043 491.08173"
         y="-508.34601"
         sodipodi:role="line"
         id="tspan496">TheRJournalVol.11/01,June2019ISSN2073-4859</tspan></text>
</g></svg>