<?xml version="1.0" encoding="UTF-8" standalone="no"?>
<!-- Created with Inkscape (http://www.inkscape.org/) -->

<svg
   xmlns:dc="http://purl.org/dc/elements/1.1/"
   xmlns:cc="http://creativecommons.org/ns#"
   xmlns:rdf="http://www.w3.org/1999/02/22-rdf-syntax-ns#"
   xmlns:svg="http://www.w3.org/2000/svg"
   xmlns="http://www.w3.org/2000/svg"
   xmlns:sodipodi="http://sodipodi.sourceforge.net/DTD/sodipodi-0.dtd"
   xmlns:inkscape="http://www.inkscape.org/namespaces/inkscape"
   id="svg2"
   version="1.1"
   inkscape:version="0.91 r13725"
   xml:space="preserve"
   width="816.50842"
   height="370.87555"
   viewBox="0 0 816.50842 370.87555"
   sodipodi:docname="shadow_image_rishon.svg"><metadata
     id="metadata8"><rdf:RDF><cc:Work
         rdf:about=""><dc:format>image/svg+xml</dc:format><dc:type
           rdf:resource="http://purl.org/dc/dcmitype/StillImage" /><dc:title></dc:title></cc:Work></rdf:RDF></metadata><defs
     id="defs6"><clipPath
       clipPathUnits="userSpaceOnUse"
       id="clipPath18"><path
         d="m 59.04,73.44 774.72,0 0,731.52 -774.72,0 0,-731.52 z"
         id="path20"
         inkscape:connector-curvature="0" /></clipPath></defs><sodipodi:namedview
     pagecolor="#ffffff"
     bordercolor="#666666"
     borderopacity="1"
     objecttolerance="10"
     gridtolerance="10"
     guidetolerance="10"
     inkscape:pageopacity="0"
     inkscape:pageshadow="2"
     inkscape:window-width="1301"
     inkscape:window-height="744"
     id="namedview4"
     showgrid="false"
     fit-margin-top="0"
     fit-margin-left="0"
     fit-margin-right="0"
     fit-margin-bottom="0"
     inkscape:zoom="0.49932566"
     inkscape:cx="383.53783"
     inkscape:cy="47.622514"
     inkscape:window-x="65"
     inkscape:window-y="24"
     inkscape:window-maximized="1"
     inkscape:current-layer="g10" /><g
     id="g10"
     inkscape:groupmode="layer"
     inkscape:label="shadow_image_rishon"
     transform="matrix(1.25,0,0,-1.25,-86.68125,701.68179)"><g
       id="g12" /><path
       d="m 453.66,397.44 -14.9,9.26 2.43,7.12 -13,13.34 -8.7,-4.42 -17.64,19.09 23.65,18.87 6.84,-3.76 4.74,4.67 -3.34,11.25 24.16,8.1 8.49,-0.37 10.12,-10.91 14.44,-14.92 -0.48,-5.66 -3.81,-5.74 2.87,-1.89 -10.67,-17.86 -6.81,2.49 -4.48,-3.8 2.74,-9.3 -16.65,-15.56 z"
       style="fill:#a9a9a9;fill-opacity:1;fill-rule:nonzero;stroke:#000000;stroke-width:0.75;stroke-linecap:round;stroke-linejoin:round;stroke-miterlimit:10;stroke-dasharray:none;stroke-opacity:1"
       id="path22"
       inkscape:connector-curvature="0" /><path
       d="m 121.57,265.03 -0.01,-0.01 -0.01,0 -0.01,0.01 -14.89,9.25 -0.01,0.01 -0.01,0.01 0,0.01 0,0.01 2.43,7.1 -12.31,12.63 -9.35,-3.73 -0.01,0 -0.01,0 -0.01,0 0,0.01 -17.64,19.09 -0.01,0.01 0,0.01 0,0.01 0,0.01 0.01,0.01 23.65,18.86 0.01,0 10.57,4.22 -2.35,7.91 0,0.01 0,0.01 0,0 0.01,0.01 0.01,0 332.1,132.39 0,0 24.16,8.1 0.01,0.01 8.49,-0.37 0.01,0 0.01,-0.01 10.12,-10.91 14.44,-14.92 0.01,0 0,-0.01 0,-0.01 -0.48,-5.66 0,-0.01 0,-0.01 -3.8,-5.71 2.84,-1.88 0.01,0 0,-0.01 0,-0.01 0,-0.01 0,0 -10.67,-17.87 0,0 -0.01,-0.01 -10.42,-4.15 1.89,-6.43 0,0 0,-0.01 -0.01,-0.01 0,0 -16.65,-15.56 -0.01,0 -332.1,-132.39 z"
       style="fill:none;stroke:#000000;stroke-width:0.75;stroke-linecap:round;stroke-linejoin:round;stroke-miterlimit:10;stroke-dasharray:none;stroke-opacity:1"
       id="path24"
       inkscape:connector-curvature="0" /><text
       transform="scale(1,-1)"
       style="font-variant:normal;font-weight:normal;font-size:18px;font-family:Helvetica;-inkscape-font-specification:Helvetica;writing-mode:lr-tb;fill:#ff0000;fill-opacity:1;fill-rule:nonzero;stroke:none"
       id="text26"
       x="104.50631"
       y="-363.44379"><tspan
         x="104.50631 114.51431 124.5223 129.52632 139.53432"
         y="-363.44379"
         sodipodi:role="line"
         id="tspan28">06:30</tspan></text>
<path
       d="m 306.24,358.26 0,0 -0.01,0 -0.01,0 -14.89,9.26 -0.01,0 0,0.01 -0.01,0.01 0.01,0.01 2.42,7.1 -11.34,11.64 -10.32,-2.74 -0.01,0 -0.01,0 -0.01,0.01 -17.64,19.1 -0.01,0 0,0.01 0,0.01 0,0.01 0.01,0.01 23.65,18.86 0.01,0.01 10.96,2.91 -2.74,9.21 0,0.01 0,0.01 0.01,0.01 0,0 0.01,0.01 24.16,8.1 0,0 147.42,39.15 0.01,0.01 8.49,-0.37 0.01,0 0.01,-0.01 10.12,-10.91 14.44,-14.92 0.01,0 0,-0.01 0,-0.01 -0.48,-5.66 0,-0.01 0,-0.01 -3.8,-5.71 2.84,-1.88 0.01,0 0,-0.01 0,-0.01 0,-0.01 0,0 -10.67,-17.87 0,-0.01 -0.01,0 -10.8,-2.87 2.27,-7.71 0,0 0,-0.01 -0.01,-0.01 0,0 -16.65,-15.56 -0.01,0 0,0 -147.43,-39.16 z"
       style="fill:none;stroke:#000000;stroke-width:0.75;stroke-linecap:round;stroke-linejoin:round;stroke-miterlimit:10;stroke-dasharray:none;stroke-opacity:1"
       id="path30"
       inkscape:connector-curvature="0" /><text
       transform="scale(1,-1)"
       style="font-variant:normal;font-weight:normal;font-size:18px;font-family:Helvetica;-inkscape-font-specification:Helvetica;writing-mode:lr-tb;fill:#ff0000;fill-opacity:1;fill-rule:nonzero;stroke:none"
       id="text32"
       x="228.31168"
       y="-422.38132"><tspan
         x="228.31168 238.31967 248.3277 253.3317 263.33969"
         y="-422.38132"
         sodipodi:role="line"
         id="tspan34">07:30</tspan></text>
<path
       d="m 365.17,384.58 -0.01,0 -0.01,0 -14.9,9.26 0,0.01 -0.01,0 0,0.01 0,0.01 2.42,7.11 -10.28,10.55 -11.38,-1.66 -0.01,0 -0.01,0.01 -0.01,0 -17.64,19.1 0,0.01 -0.01,0.01 0,0.01 0.01,0.01 0,0 23.66,18.87 0.01,0 0,0 11.33,1.65 -3.11,10.48 -0.01,0 0.01,0.01 0,0.01 0.01,0.01 0,0 24.16,8.1 0.01,0 88.49,12.84 0.01,0 8.49,-0.37 0.01,0 0.01,-0.01 10.12,-10.91 14.44,-14.92 0.01,0 0,-0.01 0,-0.01 -0.48,-5.66 0,-0.01 0,-0.01 -3.8,-5.71 2.84,-1.88 0.01,0 0,-0.01 0,-0.01 0,-0.01 0,0 -10.67,-17.87 0,0 -0.01,-0.01 -0.01,0 -11.16,-1.62 2.64,-8.96 0,0 0,-0.01 -0.01,-0.01 0,0 -16.65,-15.56 -0.01,0 -0.01,-0.01 -88.49,-12.83 z"
       style="fill:none;stroke:#000000;stroke-width:0.75;stroke-linecap:round;stroke-linejoin:round;stroke-miterlimit:10;stroke-dasharray:none;stroke-opacity:1"
       id="path36"
       inkscape:connector-curvature="0" /><text
       transform="scale(1,-1)"
       style="font-variant:normal;font-weight:normal;font-size:18px;font-family:Helvetica;-inkscape-font-specification:Helvetica;writing-mode:lr-tb;fill:#ff0000;fill-opacity:1;fill-rule:nonzero;stroke:none"
       id="text38"
       x="301.1622"
       y="-463.47946"><tspan
         x="301.1622 311.1702 321.17819 326.18219 336.19019"
         y="-463.47946"
         sodipodi:role="line"
         id="tspan40">08:30</tspan></text>
<path
       d="m 396.75,396.25 -0.01,0 -0.01,0.01 -14.89,9.25 -0.01,0.01 0,0.01 -0.01,0.01 0.01,0.01 2.42,7.1 -8.93,9.16 -12.74,-0.26 -0.01,0 -0.01,0 0,0.01 -17.64,19.09 -0.01,0.01 0,0.01 0,0.01 0,0.01 0.01,0.01 23.65,18.86 0.01,0 0.01,0.01 10.86,0.22 0.69,0.67 -3.34,11.23 0,0.01 0,0.01 0,0 0.01,0.01 0.01,0 24.15,8.1 0.01,0 56.91,1.17 0.01,0 8.49,-0.37 0.01,0 0.01,-0.01 10.12,-10.91 14.44,-14.92 0.01,0 0,-0.01 0,-0.01 -0.48,-5.66 0,-0.01 0,-0.01 -3.8,-5.71 2.84,-1.88 0.01,0 0,-0.01 0,-0.01 0,-0.01 0,0 -10.67,-17.87 0,0 -0.01,-0.01 -0.01,0 -9.98,-0.21 -1.27,-1.08 2.73,-9.29 0,0 0,-0.01 -0.01,-0.01 0,0 -16.65,-15.56 -0.01,0 -0.01,-0.01 -56.91,-1.16 z"
       style="fill:none;stroke:#000000;stroke-width:0.75;stroke-linecap:round;stroke-linejoin:round;stroke-miterlimit:10;stroke-dasharray:none;stroke-opacity:1"
       id="path42"
       inkscape:connector-curvature="0" /><text
       transform="scale(1,-1)"
       style="font-variant:normal;font-weight:normal;font-size:18px;font-family:Helvetica;-inkscape-font-specification:Helvetica;writing-mode:lr-tb;fill:#ff0000;fill-opacity:1;fill-rule:nonzero;stroke:none"
       id="text44"
       x="334.63705"
       y="-486.51239"><tspan
         x="334.63705 344.64505 354.65305 359.65704 369.66507"
         y="-486.51239"
         sodipodi:role="line"
         id="tspan46">09:30</tspan></text>
<path
       d="m 453.68,397.42 -0.01,0 -0.01,-0.01 -0.01,0 -35.41,4.85 -0.01,0 -14.89,9.26 -0.01,0 0,0.01 0,0.01 0,0.01 2.42,7.1 -6.67,6.85 -15,2.05 -0.01,0 -0.01,0.01 -17.64,19.1 -0.01,0 0,0.01 0,0.01 0,0.01 0.01,0.01 23.66,18.86 0,0.01 0.01,0 0.01,0 9.34,-1.28 2.2,2.17 -3.34,11.23 0,0.01 0,0.01 0.01,0.01 0,0 0.01,0.01 24.16,8.1 0.01,0 8.49,-0.37 0,0 35.41,-4.84 0.01,0 0.01,-0.01 10.12,-10.91 14.44,-14.92 0.01,0 0,-0.01 0,-0.01 -0.48,-5.66 0,-0.01 0,-0.01 -3.8,-5.71 2.84,-1.88 0.01,0 0,-0.01 0,-0.01 0,-0.01 0,0 -10.67,-17.87 0,0 -0.01,-0.01 -0.01,0 0,0 -8.39,1.14 -2.86,-2.43 2.73,-9.29 0,0 0,-0.01 -0.01,-0.01 0,0 -16.65,-15.56 z"
       style="fill:none;stroke:#000000;stroke-width:0.75;stroke-linecap:round;stroke-linejoin:round;stroke-miterlimit:10;stroke-dasharray:none;stroke-opacity:1"
       id="path48"
       inkscape:connector-curvature="0" /><text
       transform="scale(1,-1)"
       style="font-variant:normal;font-weight:normal;font-size:18px;font-family:Helvetica;-inkscape-font-specification:Helvetica;writing-mode:lr-tb;fill:#ff0000;fill-opacity:1;fill-rule:nonzero;stroke:none"
       id="text50"
       x="360.94757"
       y="-507.8743"><tspan
         x="360.94757 370.95557 380.96356 385.96756 395.97559"
         y="-507.8743"
         sodipodi:role="line"
         id="tspan52">10:30</tspan></text>
<path
       d="m 453.68,397.42 -0.01,0 -0.01,-0.01 -0.01,0 0,0.01 -18.39,7.91 0,0 -14.89,9.25 -0.01,0.01 -0.01,0.01 0,0.01 0,0.01 2.43,7.1 -1.73,1.78 -1.55,-0.79 -0.01,0 0,0 -0.01,0 -18.39,7.91 0,0.01 -17.65,19.09 0,0.01 0,0.01 0,0.01 0,0.01 0.01,0.01 23.65,18.86 0.01,0.01 0.01,0 0.01,-0.01 7.4,-3.18 4.13,4.08 -3.33,11.23 0,0.01 0,0.01 0,0 0.01,0.01 0.01,0 24.15,8.1 0.01,0.01 8.5,-0.37 0.01,0 18.38,-7.91 0.01,-0.01 10.12,-10.91 14.44,-14.92 0.01,0 0,-0.01 0,-0.01 -0.48,-5.66 0,-0.01 0,-0.01 -3.8,-5.71 2.84,-1.88 0.01,0 0,-0.01 0,-0.01 0,-0.01 0,0 -10.67,-17.87 0,-0.01 -0.01,0 -0.01,0 -0.01,0 -6.79,2.49 -4.45,-3.78 2.73,-9.29 0,0 0,-0.01 -0.01,-0.01 0,0 -16.65,-15.56 z"
       style="fill:none;stroke:#000000;stroke-width:0.75;stroke-linecap:round;stroke-linejoin:round;stroke-miterlimit:10;stroke-dasharray:none;stroke-opacity:1"
       id="path54"
       inkscape:connector-curvature="0" /><text
       transform="scale(1,-1)"
       style="font-variant:normal;font-weight:normal;font-size:18px;font-family:Helvetica;-inkscape-font-specification:Helvetica;writing-mode:lr-tb;fill:#ff0000;fill-opacity:1;fill-rule:nonzero;stroke:none"
       id="text56"
       x="411.67944"
       y="-524.05316"><tspan
         x="411.67944 421.68744 431.69543 436.69946 446.70746"
         y="-524.05316"
         sodipodi:role="line"
         id="tspan58">11:30</tspan></text>
<path
       d="m 453.68,397.42 -0.01,0 -0.01,-0.01 -0.01,0.01 -0.01,0 -14.89,9.25 -0.01,0.01 0,0.01 -3.28,9.06 0,0.01 0,0.01 0.99,2.88 -8.26,8.47 -8.69,-4.41 -0.01,0 -0.01,0 -0.01,0 0,0.01 -17.64,19.1 -0.01,0 -3.27,9.07 0,0.01 0,0.01 0,0 0.01,0.01 23.65,18.86 0.01,0.01 0.01,0 0.01,0 0,0 6.82,-3.76 4.71,4.66 -3.33,11.22 0,0.01 0,0.01 0,0.01 0.01,0 0.01,0.01 24.15,8.1 0.01,0 8.5,-0.36 0.01,-0.01 0.01,0 10.12,-10.91 14.44,-14.92 0.01,-0.01 3.27,-9.07 0,-0.01 -0.48,-5.66 0,-0.01 0,-0.01 -2.39,-3.59 1.44,-4.01 0,-0.01 0,-0.01 0,0 -10.67,-17.87 0,-0.01 -0.01,0 -0.01,0 -0.01,0 -6.79,2.49 -4.45,-3.78 2.73,-9.29 0,0 0,-0.01 -0.01,-0.01 0,0 -16.65,-15.56 z"
       style="fill:none;stroke:#000000;stroke-width:0.75;stroke-linecap:round;stroke-linejoin:round;stroke-miterlimit:10;stroke-dasharray:none;stroke-opacity:1"
       id="path60"
       inkscape:connector-curvature="0" /><text
       transform="scale(1,-1)"
       style="font-variant:normal;font-weight:normal;font-size:18px;font-family:Helvetica;-inkscape-font-specification:Helvetica;writing-mode:lr-tb;fill:#ff0000;fill-opacity:1;fill-rule:nonzero;stroke:none"
       id="text62"
       x="444.20969"
       y="-548.58344"><tspan
         x="444.20969 454.21771 464.22571 469.22971 479.2377"
         y="-548.58344"
         sodipodi:role="line"
         id="tspan64">12:30</tspan></text>
<path
       d="m 453.67,397.42 0,0 -0.01,-0.01 -0.01,0.01 -0.01,0 -14.89,9.25 -0.01,0.01 0,0.01 0,0.01 0,0.01 2.42,7.1 -12.97,13.31 -8.69,-4.41 -0.01,0 -0.01,0 -0.01,0 0,0.01 -17.64,19.1 -0.01,0 0,0.01 0,0.01 0,0.01 0.01,0.01 23.65,18.86 0.01,0 9.67,7.25 -1.45,4.88 0,0.01 0,0.01 0.01,0 0,0.01 11.52,8.63 0.01,0.01 24.16,8.1 0.01,0 8.49,-0.37 0.01,0 0.01,-0.01 10.12,-10.9 14.44,-14.93 0.01,0 0,-0.01 0,-0.01 -0.48,-5.66 0,-0.01 0,-0.01 -3.8,-5.71 2.84,-1.87 0.01,-0.01 0,-0.01 0.01,-0.01 -0.01,0 0,-0.01 -10.66,-17.87 -0.01,0 -9.55,-7.16 1.01,-3.42 0,-0.01 0,-0.01 0,-0.01 -0.01,0 -16.65,-15.56 0,0 -11.53,-8.63 z"
       style="fill:none;stroke:#000000;stroke-width:0.75;stroke-linecap:round;stroke-linejoin:round;stroke-miterlimit:10;stroke-dasharray:none;stroke-opacity:1"
       id="path66"
       inkscape:connector-curvature="0" /><text
       transform="scale(1,-1)"
       style="font-variant:normal;font-weight:normal;font-size:18px;font-family:Helvetica;-inkscape-font-specification:Helvetica;writing-mode:lr-tb;fill:#ff0000;fill-opacity:1;fill-rule:nonzero;stroke:none"
       id="text68"
       x="481.65244"
       y="-532.5083"><tspan
         x="481.65244 491.66043 501.66843 506.67242 516.68042"
         y="-532.5083"
         sodipodi:role="line"
         id="tspan70">13:30</tspan></text>
<path
       d="m 453.66,397.42 0,-0.01 -0.01,0.01 -0.01,0 -14.89,9.25 -0.01,0.01 0,0.01 0,0.01 0,0.01 2.42,7.1 -11.1,11.4 -10.57,-2.5 0,0 -0.01,0 -0.01,0.01 -17.64,19.1 -0.01,0 0,0.01 0,0.01 0,0.01 0.01,0.01 23.65,18.86 0.02,0.01 11.04,2.61 -2.83,9.51 0,0.01 0,0.01 0.01,0 0,0.01 0.01,0 24.16,8.1 0,0 27.46,6.5 0.01,0 8.49,-0.37 0.01,0 0.01,-0.01 10.12,-10.9 14.44,-14.92 0.01,-0.01 0,-0.01 0,-0.01 -0.48,-5.66 0,-0.01 0,-0.01 -3.8,-5.71 2.84,-1.87 0.01,-0.01 0,-0.01 0.01,-0.01 0,0 -0.01,-0.01 -10.66,-17.87 -0.01,0 0,-0.01 -0.01,0 -10.88,-2.57 2.35,-8 0,-0.01 0,-0.01 0,-0.01 -0.01,0 -16.65,-15.56 -0.01,0 0,0 -27.47,-6.49 z"
       style="fill:none;stroke:#000000;stroke-width:0.75;stroke-linecap:round;stroke-linejoin:round;stroke-miterlimit:10;stroke-dasharray:none;stroke-opacity:1"
       id="path72"
       inkscape:connector-curvature="0" /><text
       transform="scale(1,-1)"
       style="font-variant:normal;font-weight:normal;font-size:18px;font-family:Helvetica;-inkscape-font-specification:Helvetica;writing-mode:lr-tb;fill:#ff0000;fill-opacity:1;fill-rule:nonzero;stroke:none"
       id="text74"
       x="498.66107"
       y="-511.31104"><tspan
         x="498.66107 508.6691 518.677 523.68103 533.68903"
         y="-511.31104"
         sodipodi:role="line"
         id="tspan76">14:30</tspan></text>
<path
       d="m 453.66,397.41 -0.01,0.01 -0.01,0 -14.89,9.25 -0.01,0.01 0,0.01 0,0.01 0,0.01 2.42,7.1 -9.19,9.43 -12.48,-0.53 -0.01,0 -0.01,0 0,0.01 -17.64,19.1 -0.01,0 0,0.01 0,0.01 0,0.01 0.01,0.01 23.65,18.86 0.01,0.01 0.01,0 11.12,0.47 0.43,0.42 -3.34,11.23 0,0.01 0,0.01 0.01,0 0,0.01 0.01,0 24.16,8.1 0,0.01 46.54,1.99 0.01,0 8.49,-0.36 0.01,-0.01 0.01,0 10.12,-10.91 14.44,-14.92 0.01,-0.01 0,-0.01 0,0 -0.48,-5.67 0,-0.01 0,0 -3.8,-5.71 2.84,-1.88 0.01,-0.01 0,0 0,-0.01 0,-0.01 0,-0.01 -10.67,-17.86 0,-0.01 -0.01,-0.01 -0.01,0 -10.25,-0.44 -1,-0.84 2.73,-9.29 0,-0.01 0,-0.01 -0.01,0 0,-0.01 -16.65,-15.55 -0.01,-0.01 -0.01,0 -46.54,-2 z"
       style="fill:none;stroke:#000000;stroke-width:0.75;stroke-linecap:round;stroke-linejoin:round;stroke-miterlimit:10;stroke-dasharray:none;stroke-opacity:1"
       id="path78"
       inkscape:connector-curvature="0" /><text
       transform="scale(1,-1)"
       style="font-variant:normal;font-weight:normal;font-size:18px;font-family:Helvetica;-inkscape-font-specification:Helvetica;writing-mode:lr-tb;fill:#ff0000;fill-opacity:1;fill-rule:nonzero;stroke:none"
       id="text80"
       x="512.96539"
       y="-487.797"><tspan
         x="512.96539 522.97339 532.98138 537.98535 547.99335"
         y="-487.797"
         sodipodi:role="line"
         id="tspan82">15:30</tspan></text>
<path
       d="m 526.24,390.82 0,-0.01 -0.01,0 -0.01,0 -72.56,6.6 -0.02,0.01 -14.89,9.25 -0.01,0.01 0,0.01 0,0.01 0,0.01 2.42,7.1 -7.41,7.6 -14.26,1.3 -0.01,0 -0.01,0.01 -17.64,19.1 -0.01,0 0,0.01 0,0.01 0,0.01 0.01,0.01 23.65,18.86 0.01,0.01 0.01,0 9.74,-0.89 1.81,1.78 -3.34,11.23 0,0.01 0,0.01 0.01,0 0,0.01 0.01,0 24.16,8.1 0.01,0.01 8.49,-0.37 0,0 72.57,-6.6 0.01,-0.01 0,0 10.12,-10.91 14.45,-14.92 0,-0.01 0.01,-0.01 0,0 -0.48,-5.67 0,-0.01 -0.01,0 -3.8,-5.71 2.85,-1.88 0,-0.01 0.01,0 0,-0.01 0,-0.01 0,-0.01 -10.67,-17.86 0,-0.01 -0.01,0 -0.01,-0.01 -0.01,0 -8.79,0.8 -2.46,-2.08 2.73,-9.29 0,-0.01 0,-0.01 0,0 0,-0.01 -16.66,-15.55 z"
       style="fill:none;stroke:#000000;stroke-width:0.75;stroke-linecap:round;stroke-linejoin:round;stroke-miterlimit:10;stroke-dasharray:none;stroke-opacity:1"
       id="path84"
       inkscape:connector-curvature="0" /><text
       transform="scale(1,-1)"
       style="font-variant:normal;font-weight:normal;font-size:18px;font-family:Helvetica;-inkscape-font-specification:Helvetica;writing-mode:lr-tb;fill:#ff0000;fill-opacity:1;fill-rule:nonzero;stroke:none"
       id="text86"
       x="543.54913"
       y="-472.71268"><tspan
         x="543.54913 553.55713 563.56512 568.56915 578.57715"
         y="-472.71268"
         sodipodi:role="line"
         id="tspan88">16:30</tspan></text>
<path
       d="m 569.17,373.04 -0.01,-0.01 -0.01,0 0,0 -115.5,24.38 -0.01,0.01 -14.89,9.25 -0.01,0.01 0,0.01 0,0.01 0,0.01 2.42,7.1 -5.3,5.44 -16.38,3.46 -0.01,0 0,0.01 -17.64,19.1 -0.01,0 0,0.01 0,0.01 0,0.01 0.01,0.01 23.65,18.86 0.01,0.01 0.01,0 0.01,0 8.76,-1.85 2.78,2.74 -3.34,11.23 0,0.01 0,0.01 0.01,0 0,0.01 0.01,0 24.16,8.1 0.01,0.01 8.49,-0.37 0,0 115.5,-24.38 0,0 0.01,-0.01 10.12,-10.91 14.45,-14.92 0,0 0,-0.01 0,-0.01 -0.47,-5.67 -0.01,0 0,-0.01 -3.8,-5.71 2.85,-1.88 0,0 0.01,-0.01 0,-0.01 0,-0.01 -0.01,-0.01 -10.66,-17.86 -0.01,-0.01 0,0 -0.01,0 -0.01,0 -7.79,1.64 -3.46,-2.93 2.73,-9.29 0,-0.01 0,0 0,-0.01 -0.01,-0.01 -16.65,-15.55 z"
       style="fill:none;stroke:#000000;stroke-width:0.75;stroke-linecap:round;stroke-linejoin:round;stroke-miterlimit:10;stroke-dasharray:none;stroke-opacity:1"
       id="path90"
       inkscape:connector-curvature="0" /><text
       transform="scale(1,-1)"
       style="font-variant:normal;font-weight:normal;font-size:18px;font-family:Helvetica;-inkscape-font-specification:Helvetica;writing-mode:lr-tb;fill:#ff0000;fill-opacity:1;fill-rule:nonzero;stroke:none"
       id="text92"
       x="594.63019"
       y="-447.16861"><tspan
         x="594.63019 604.63818 614.64618 619.65021 629.6582"
         y="-447.16861"
         sodipodi:role="line"
         id="tspan94">17:30</tspan></text>
<path
       d="m 669.33,324.82 -0.01,0 -0.01,0 -0.01,0 -215.65,72.6 -0.01,0 -14.89,9.25 -0.01,0.01 0,0.01 0,0.01 0,0.01 2.42,7.1 -2.32,2.38 -19.36,6.52 -0.01,0 0,0.01 -17.64,19.1 -0.01,0 0,0.01 0,0.01 0,0.01 0.01,0.01 23.65,18.86 0.01,0.01 0.01,0 0.01,0 7.93,-2.67 3.61,3.56 -3.34,11.23 0,0.01 0,0.01 0.01,0 0,0.01 0.01,0 24.16,8.1 0.01,0.01 8.49,-0.37 0.01,0 215.65,-72.6 0,0 0.01,-0.01 10.12,-10.9 14.44,-14.93 0.01,0 0,-0.01 0,-0.01 -0.48,-5.66 0,-0.01 0,-0.01 -3.8,-5.71 2.84,-1.87 0.01,-0.01 0,-0.01 0,-0.01 0,0 0,-0.01 -10.66,-17.87 -0.01,0 -0.01,-0.01 -0.01,0 -0.01,0 -6.96,2.34 -4.28,-3.63 2.73,-9.28 0,-0.01 0,-0.01 -0.01,-0.01 0,0 -16.65,-15.56 z"
       style="fill:none;stroke:#000000;stroke-width:0.75;stroke-linecap:round;stroke-linejoin:round;stroke-miterlimit:10;stroke-dasharray:none;stroke-opacity:1"
       id="path96"
       inkscape:connector-curvature="0" /><text
       transform="scale(1,-1)"
       style="font-variant:normal;font-weight:normal;font-size:18px;font-family:Helvetica;-inkscape-font-specification:Helvetica;writing-mode:lr-tb;fill:#ff0000;fill-opacity:1;fill-rule:nonzero;stroke:none"
       id="text98"
       x="678.39777"
       y="-414.04431"><tspan
         x="678.39777 688.40576 698.41376 703.41772 713.42572"
         y="-414.04431"
         sodipodi:role="line"
         id="tspan100">18:30</tspan></text>
</g></svg>