<?xml version="1.0" encoding="UTF-8" standalone="no"?>
<svg
   xmlns:dc="http://purl.org/dc/elements/1.1/"
   xmlns:cc="http://creativecommons.org/ns#"
   xmlns:rdf="http://www.w3.org/1999/02/22-rdf-syntax-ns#"
   xmlns:svg="http://www.w3.org/2000/svg"
   xmlns="http://www.w3.org/2000/svg"
   viewBox="0 0 356.35806 253.46281"
   height="253.46281"
   width="356.35806"
   xml:space="preserve"
   version="1.1"
   id="svg2"><metadata
     id="metadata8"><rdf:RDF><cc:Work
         rdf:about=""><dc:format>image/svg+xml</dc:format><dc:type
           rdf:resource="http://purl.org/dc/dcmitype/StillImage" /><dc:title></dc:title></cc:Work></rdf:RDF></metadata><defs
     id="defs6" /><g
     transform="matrix(1.25,0,0,-1.25,0,253.46281)"
     id="g10"><g
       id="g12"><path
         id="path14"
         style="fill:#e6e6e6;fill-opacity:1;fill-rule:nonzero;stroke:#000000;stroke-width:0.44231299;stroke-linecap:butt;stroke-linejoin:miter;stroke-miterlimit:4;stroke-dasharray:none;stroke-opacity:1"
         d="m 163.875,91.044 61.926,0 0,-87.281 -61.926,0 0,87.281 z" /><path
         id="path16"
         style="fill:#e6e6e6;fill-opacity:1;fill-rule:nonzero;stroke:#000000;stroke-width:0.44231299;stroke-linecap:butt;stroke-linejoin:miter;stroke-miterlimit:4;stroke-dasharray:none;stroke-opacity:1"
         d="m 163.875,186.165 61.926,0 0,-43.281 -61.926,0 0,43.281 z" /><path
         id="path18"
         style="fill:#000000;fill-opacity:1;fill-rule:nonzero;stroke:#000000;stroke-width:0.44231299;stroke-linecap:butt;stroke-linejoin:miter;stroke-miterlimit:4;stroke-dasharray:none;stroke-opacity:1"
         d="m 4.645,166.087 c 0,-1.219 -0.989,-2.211 -2.211,-2.211 -1.223,0 -2.211,0.992 -2.211,2.211 0,1.222 0.988,2.214 2.211,2.214 1.222,0 2.211,-0.992 2.211,-2.214 z" /><path
         id="path20"
         style="fill:none;stroke:#ff0000;stroke-width:0.44231299;stroke-linecap:butt;stroke-linejoin:miter;stroke-miterlimit:4;stroke-dasharray:1.326938, 1.326938;stroke-dashoffset:0;stroke-opacity:1"
         d="m 2.434,166.087 272.019,0" /><path
         id="path22"
         style="fill:#000000;fill-opacity:1;fill-rule:nonzero;stroke:#000000;stroke-width:0.44231299;stroke-linecap:butt;stroke-linejoin:miter;stroke-miterlimit:4;stroke-dasharray:none;stroke-opacity:1"
         d="m 4.645,2.434 c 0,-1.222 -0.989,-2.215 -2.211,-2.215 -1.223,0 -2.211,0.993 -2.211,2.215 0,1.223 0.988,2.211 2.211,2.211 1.222,0 2.211,-0.988 2.211,-2.211 z" /><path
         id="path24"
         style="fill:none;stroke:#000000;stroke-width:0.44231299;stroke-linecap:butt;stroke-linejoin:miter;stroke-miterlimit:4;stroke-dasharray:none;stroke-opacity:1"
         d="m 2.434,2.434 272.019,0" /><path
         id="path26"
         style="fill:none;stroke:#ff0000;stroke-width:0.44231299;stroke-linecap:butt;stroke-linejoin:miter;stroke-miterlimit:4;stroke-dasharray:1.326938, 1.326938;stroke-dashoffset:0;stroke-opacity:1"
         d="m 2.434,42.016 272.019,82.715" /><path
         id="path28"
         style="fill:none;stroke:#000000;stroke-width:0.44231299;stroke-linecap:butt;stroke-linejoin:miter;stroke-miterlimit:4;stroke-dasharray:0.442313, 0.442313;stroke-dashoffset:0;stroke-opacity:1"
         d="m 2.434,42.016 0,-39.582" /><path
         id="path30"
         style="fill:none;stroke:#000000;stroke-width:0.44231299;stroke-linecap:butt;stroke-linejoin:miter;stroke-miterlimit:4;stroke-dasharray:0.442313, 0.442313;stroke-dashoffset:0;stroke-opacity:1"
         d="m 2.434,42.016 161.441,0" /><text
         id="text32"
         style="font-variant:normal;font-weight:normal;font-size:11.05781269px;font-family:Courier;-inkscape-font-specification:Courier;writing-mode:lr-tb;fill:#000000;fill-opacity:1;fill-rule:nonzero;stroke:none"
         transform="matrix(1,0,0,-1,33.245865,44.23959)"><tspan
           id="tspan34"
           y="0"
           x="0">α</tspan></text>
<path
         id="path36"
         style="fill:none;stroke:#000000;stroke-width:0.44231299;stroke-linecap:butt;stroke-linejoin:miter;stroke-miterlimit:4;stroke-dasharray:none;stroke-opacity:1"
         d="m 27.77,49.719 c 0,0 1.726,-2.429 2.023,-3.851 0.266,-1.258 -0.258,-3.852 -0.258,-3.852" /><text
         id="text38"
         style="font-variant:normal;font-weight:normal;font-size:11.05781269px;font-family:Courier;-inkscape-font-specification:Courier;writing-mode:lr-tb;fill:#000000;fill-opacity:1;fill-rule:nonzero;stroke:none"
         transform="matrix(1,0,0,-1,79.390762,32.358624)"><tspan
           id="tspan40"
           y="0"
           x="0 6.6346879 13.269376 19.904064">dist</tspan><tspan
           id="tspan42"
           y="-14.85197"
           x="158.23051">h</tspan></text>
<text
         id="text44"
         style="font-variant:normal;font-weight:normal;font-size:7.1875782px;font-family:Courier;-inkscape-font-specification:Courier;writing-mode:lr-tb;fill:#000000;fill-opacity:1;fill-rule:nonzero;stroke:none"
         transform="matrix(1,0,0,-1,244.25165,44.999035)"><tspan
           id="tspan46"
           y="0"
           x="0 4.3125467 8.6250935 12.93764 17.250187">build</tspan></text>
<path
         id="path48"
         style="fill:none;stroke:#000000;stroke-width:0.44231299;stroke-linecap:butt;stroke-linejoin:miter;stroke-miterlimit:4;stroke-dasharray:0.442313, 0.442313;stroke-dashoffset:0;stroke-opacity:1"
         d="M 230.367,91.044 230.164,3.762" /><path
         id="path50"
         style="fill:#000000;fill-opacity:1;fill-rule:evenodd;stroke:#000000;stroke-width:0.44231099;stroke-linecap:butt;stroke-linejoin:miter;stroke-miterlimit:4;stroke-dasharray:none;stroke-opacity:1"
         d="m 230.355,86.618 1.766,-1.774 -1.754,6.2 -1.785,-6.192 1.773,1.766 z" /><path
         id="path52"
         style="fill:#000000;fill-opacity:1;fill-rule:evenodd;stroke:#000000;stroke-width:0.44231099;stroke-linecap:butt;stroke-linejoin:miter;stroke-miterlimit:4;stroke-dasharray:none;stroke-opacity:1"
         d="m 230.176,8.184 -1.766,1.774 1.754,-6.196 1.785,6.188 -1.773,-1.766 z" /><path
         id="path54"
         style="fill:none;stroke:#000000;stroke-width:0.44231299;stroke-linecap:butt;stroke-linejoin:miter;stroke-miterlimit:4;stroke-dasharray:0.442313, 0.442313;stroke-dashoffset:0;stroke-opacity:1"
         d="m 168.301,91.044 0,-49.028" /><path
         id="path56"
         style="fill:#000000;fill-opacity:1;fill-rule:evenodd;stroke:#000000;stroke-width:0.44231299;stroke-linecap:butt;stroke-linejoin:miter;stroke-miterlimit:4;stroke-dasharray:none;stroke-opacity:1"
         d="m 168.301,86.618 1.769,-1.77 -1.769,6.196 -1.77,-6.196 1.77,1.77 z" /><path
         id="path58"
         style="fill:#000000;fill-opacity:1;fill-rule:evenodd;stroke:#000000;stroke-width:0.44231299;stroke-linecap:butt;stroke-linejoin:miter;stroke-miterlimit:4;stroke-dasharray:none;stroke-opacity:1"
         d="m 168.301,46.438 -1.77,1.77 1.77,-6.192 1.769,6.192 -1.769,-1.77 z" /><text
         id="text60"
         style="font-variant:normal;font-weight:normal;font-size:11.05781269px;font-family:Courier;-inkscape-font-specification:Courier;writing-mode:lr-tb;fill:#000000;fill-opacity:1;fill-rule:nonzero;stroke:none"
         transform="matrix(1,0,0,-1,171.17644,63.165436)"><tspan
           id="tspan62"
           y="0"
           x="0">h</tspan></text>
<text
         id="text64"
         style="font-variant:normal;font-weight:normal;font-size:7.1875782px;font-family:Courier;-inkscape-font-specification:Courier;writing-mode:lr-tb;fill:#000000;fill-opacity:1;fill-rule:nonzero;stroke:none"
         transform="matrix(1,0,0,-1,177.80679,60.953873)"><tspan
           id="tspan66"
           y="0"
           x="0 4.3125467 8.6250935 12.93764">drop</tspan></text>
<text
         id="text68"
         style="font-variant:normal;font-weight:normal;font-size:11.05781269px;font-family:'DejaVu Sans';-inkscape-font-specification:DejaVuSans;writing-mode:lr-tb;fill:#000000;fill-opacity:1;fill-rule:nonzero;stroke:none"
         transform="matrix(1,0,0,-1,11.310868,183.78416)"><tspan
           id="tspan70"
           y="0"
           x="0 6.7563238 13.766977 19.51704 26.317595 30.862356 37.397522 44.198078">observer</tspan><tspan
           id="tspan72"
           y="-12.79306"
           x="227.29381 233.04387 240.04347">sun</tspan><tspan
           id="tspan74"
           y="45.239052"
           x="68.262497 75.018822 82.02948 87.713196 92.047859 98.815239 104.88598 107.94899">obstacle</tspan></text>
<path
         id="path76"
         style="fill:none;stroke:#000000;stroke-width:0.44231299;stroke-linecap:butt;stroke-linejoin:miter;stroke-miterlimit:4;stroke-dasharray:none;stroke-opacity:1"
         d="M 13.734,181.36 6.059,171.669" /><path
         id="path78"
         style="fill:#000000;fill-opacity:1;fill-rule:evenodd;stroke:#000000;stroke-width:0.442312;stroke-linecap:butt;stroke-linejoin:miter;stroke-miterlimit:4;stroke-dasharray:none;stroke-opacity:1"
         d="m 8.805,175.134 -0.289,2.484 -2.457,-5.949 5.23,3.754 -2.484,-0.289 z" /><path
         id="path80"
         style="fill:none;stroke:#000000;stroke-width:0.44231299;stroke-linecap:butt;stroke-linejoin:miter;stroke-miterlimit:4;stroke-dasharray:none;stroke-opacity:1"
         d="m 251.438,193.848 16.64,-15.558" /><path
         id="path82"
         style="fill:#000000;fill-opacity:1;fill-rule:evenodd;stroke:#000000;stroke-width:0.442312;stroke-linecap:butt;stroke-linejoin:miter;stroke-miterlimit:4;stroke-dasharray:none;stroke-opacity:1"
         d="m 264.848,181.313 -2.5,-0.086 5.73,-2.937 -3.312,5.523 0.082,-2.5 z" /><path
         id="path84"
         style="fill:none;stroke:#000000;stroke-width:0.44231299;stroke-linecap:butt;stroke-linejoin:miter;stroke-miterlimit:4;stroke-dasharray:none;stroke-opacity:1"
         d="m 128.492,142.645 32.961,11.25" /><path
         id="path86"
         style="fill:#000000;fill-opacity:1;fill-rule:evenodd;stroke:#000000;stroke-width:0.442312;stroke-linecap:butt;stroke-linejoin:miter;stroke-miterlimit:4;stroke-dasharray:none;stroke-opacity:1"
         d="m 157.27,152.466 -1.106,-2.247 5.289,3.676 -6.43,-0.324 2.247,-1.105 z" /><text
         id="text88"
         style="font-variant:normal;font-weight:normal;font-size:11.05781269px;font-family:Courier;-inkscape-font-specification:Courier;writing-mode:lr-tb;fill:#000000;fill-opacity:1;fill-rule:nonzero;stroke:none"
         transform="matrix(1,0,0,-1,11.878347,22.3695)"><tspan
           id="tspan90"
           y="0"
           x="0">h</tspan></text>
<text
         id="text92"
         style="font-variant:normal;font-weight:normal;font-size:7.1875782px;font-family:Courier;-inkscape-font-specification:Courier;writing-mode:lr-tb;fill:#000000;fill-opacity:1;fill-rule:nonzero;stroke:none"
         transform="matrix(1,0,0,-1,18.508717,20.157937)"><tspan
           id="tspan94"
           y="0"
           x="0 4.3125467 8.6250935 12.93764 17.250187">shade</tspan></text>
<path
         id="path96"
         style="fill:none;stroke:#000000;stroke-width:0.44231299;stroke-linecap:butt;stroke-linejoin:miter;stroke-miterlimit:4;stroke-dasharray:0.442313, 0.442313;stroke-dashoffset:0;stroke-opacity:1"
         d="m 7.086,42.016 0,-39.808" /><path
         id="path98"
         style="fill:#000000;fill-opacity:1;fill-rule:evenodd;stroke:#000000;stroke-width:0.44231299;stroke-linecap:butt;stroke-linejoin:miter;stroke-miterlimit:4;stroke-dasharray:none;stroke-opacity:1"
         d="m 7.086,37.594 1.769,-1.769 -1.769,6.191 -1.77,-6.191 1.77,1.769 z" /><path
         id="path100"
         style="fill:#000000;fill-opacity:1;fill-rule:evenodd;stroke:#000000;stroke-width:0.44231299;stroke-linecap:butt;stroke-linejoin:miter;stroke-miterlimit:4;stroke-dasharray:none;stroke-opacity:1"
         d="M 7.086,6.63 5.316,8.399 7.086,2.208 8.855,8.399 7.086,6.63 Z" /><path
         id="path102"
         style="fill:#ffff00;fill-opacity:1;fill-rule:nonzero;stroke:#000000;stroke-width:0.44231299;stroke-linecap:butt;stroke-linejoin:miter;stroke-miterlimit:4;stroke-dasharray:none;stroke-opacity:1"
         d="m 284.867,166.087 c 0,-5.7 -4.625,-10.321 -10.324,-10.321 -5.699,0 -10.324,4.621 -10.324,10.321 0,5.703 4.625,10.324 10.324,10.324 5.699,0 10.324,-4.621 10.324,-10.324 z" /><path
         id="path104"
         style="fill:#ffff00;fill-opacity:1;fill-rule:nonzero;stroke:#000000;stroke-width:0.44231299;stroke-linecap:butt;stroke-linejoin:miter;stroke-miterlimit:4;stroke-dasharray:none;stroke-opacity:1"
         d="m 284.867,124.903 c 0,-5.699 -4.625,-10.32 -10.324,-10.32 -5.699,0 -10.324,4.621 -10.324,10.32 0,5.699 4.625,10.324 10.324,10.324 5.699,0 10.324,-4.625 10.324,-10.324 z" /></g></g></svg>